<svg width="22" height="19" viewBox="0 0 22 19" fill="none" xmlns="http://www.w3.org/2000/svg">
<path fill-rule="evenodd" clip-rule="evenodd" d="M7.49847 3.35056C7.49847 1.49923 9.06498 0 10.9997 0C12.9343 0 14.5008 1.49912 14.5008 3.35056C14.5008 4.91572 13.3783 6.23225 11.8624 6.59968V11.163L15.8765 13.426C16.5206 12.7348 17.4545 12.2989 18.4988 12.2989C20.4334 12.2989 22 13.798 22 15.6494C22 17.5008 20.4335 19 18.4988 19C16.5641 19 14.9956 17.4987 14.9956 15.6494C14.9956 15.3457 15.0393 15.0507 15.1198 14.7711L10.9976 12.4465L6.8802 14.7667C6.96071 15.0485 7.00442 15.3435 7.00442 15.6494C7.00442 17.4986 5.43562 19 3.50324 19C1.57086 19 0 17.4987 0 15.6494C0 13.8002 1.5688 12.2989 3.50324 12.2989C4.54297 12.2989 5.4792 12.7326 6.12099 13.4238L10.2685 11.0859V6.62828C8.68585 6.30689 7.4989 4.96185 7.4989 3.35042L7.49847 3.35056Z" fill="#6524EB"/>
</svg>
